<?xml version="1.0" ?><svg viewBox="0 0 64 64" xmlns="http://www.w3.org/2000/svg"><g id="Glyph"><g data-name="Glyph" id="Glyph-2"><path d="M18,12a1,1,0,0,0,1,1H45a1,1,0,0,0,0-2H19A1,1,0,0,0,18,12Z"/><path d="M34,31a1,1,0,0,0,0-2H19a1,1,0,0,0,0,2Z"/><path d="M58.4,21.83l-4.12-2.69,6.43-6.44a3.84,3.84,0,1,0-5.42-5.41L53,9.59V5a3,3,0,0,0-3-3H14a3,3,0,0,0-3,3V18.3L5.54,21.88A9,9,0,0,0,2,29.05V53a9.06,9.06,0,0,0,9.05,9H53a9.06,9.06,0,0,0,9-9V29.05A9,9,0,0,0,58.4,21.83Zm-.87,1.88a6.54,6.54,0,0,1,1.33,1.5L53,30.42V27.75ZM43.15,26.56l-2.57.86.86-2.57ZM56.71,8.71c2.07-2.08,4.66.53,2.58,2.59l-.29.29L56.41,9Zm-50.25,15,4.54,4v2.68L5.14,25.21A6.74,6.74,0,0,1,6.46,23.71ZM5.57,57.38a6.7,6.7,0,0,1-1-1.75l15.82-14.2,1.5,1.33ZM37.78,38.84a8.72,8.72,0,0,0-11.56,0l-2.9,2.56L13,32.21V5a1,1,0,0,1,1-1H50a1,1,0,0,1,1,1v6.59l-5.54,5.54A.91.91,0,0,0,45,17H19a1,1,0,0,0,0,2H43.59l-3.3,3.29A1.8,1.8,0,0,0,40,23H19a1,1,0,0,0,0,2H39.28l-1.23,3.68A1,1,0,0,0,39.32,30l6-2a2,2,0,0,0,.39-.24L51,22.41v9.8L40.73,41.36ZM58.66,57.06,42.21,42.71l1.51-1.34L59.61,55.23A6,6,0,0,1,58.66,57.06Z"/></g></g></svg>